<svg width="444.72" height="140.6" version="1.1" viewBox="0 0 444.72 140.6" xmlns="http://www.w3.org/2000/svg">
 <g fill="#ff7800">
  <path d="m143.64 24.015-22.095 68h35.647v-68z"/>
  <path d="m235.58 0.015181c-32.974 3.224e-5 -59.707 20.589-59.713 45.99-7e-3 25.409 26.729 46.01 59.713 46.01 13.942-0.0045 27.442-3.7668 38.161-10.635-6.9211-6.6386-11.805-14.396-14.287-22.693-5.4106 6.0505-14.37 9.3239-23.907 9.3281-16.023-0.0012-28.976-9.6669-28.974-22.01-1e-3 -12.342 12.964-21.989 28.986-21.99 16.022 0.0012 29.03 9.6481 29.029 21.99h30.706c-0.00667-25.401-26.739-45.99-59.713-45.99z"/>
  <path d="m73.734 42.923 15.952 49.092 13.943-42.908-15.952-49.092z" stroke-width=".99996"/>
  <path d="m0 0.015181 29.895 92 13.947-42.923-15.946-49.077z"/>
 </g>
 <g fill="#002a8d">
  <path d="m324.3 0.015181c-13.942 0.0045029-27.442 3.7668-38.161 10.635 6.9211 6.6386 11.805 14.396 14.287 22.693 5.4106-6.0505 14.362-9.3239 23.9-9.3281 16.023 0.0012 28.984 9.6669 28.981 22.01 1e-3 12.342-13.002 21.989-29.024 21.99-16.022-0.0012-28.992-9.6481-28.99-21.99h-30.706c7e-3 25.401 26.739 45.99 59.713 45.99 32.974-3.2e-5 59.707-20.589 59.713-45.99 7e-3 -25.409-26.729-46.01-59.713-46.01z"/>
  <path d="m119.62 0.015181-29.937 92 27.884-0.0032 24.945-76.768h14.674v-15.229z" stroke-width=".99996"/>
  <path d="m59.791 0.015181-29.897 92 27.89-0.003628 29.892-91.996z" stroke-width=".99998"/>
  <path d="m260.68 0.015178-16.188 23.996h-6.0428c-5.7641 0-31.579-0.42979-41.501 32.371l-11.575 35.618h-28.183l13.682-42.103c15.897-49.896 48.431-49.897 65.603-49.897z"/>
 </g>
 <g transform="matrix(.81754 0 0 .6421 -156.87 81.515)" fill="#ff7800" aria-label="dev">
  <path d="m601.07 32.687q4.608 4.608 7.104 10.848 2.592 6.144 2.592 12.768 0 8.736-4.032 16.224-4.032 7.392-11.04 11.712-6.912 4.32-15.072 4.32h-6.336v-14.496h6.24q6.432 0 11.04-5.184 4.704-5.28 4.704-12.576 0-7.968-5.376-13.248-4.512-4.416-10.272-4.416h-8.928v23.232h-7.104v-31.872h-7.392v-5.76l23.328-0.096q11.808 0 20.544 8.544zm-39.168 0v31.872h9.696v24.096h-14.4v-55.968z"/>
  <path d="m634.96 63.311v10.848h33.312v14.496h-47.808v-37.824h4.224v8.448h13.632v4.032zm33.312-24.672h-33.312v10.272h33.312v0.192l-5.664 14.208h-21.6v-6.72h-13.632v-8.352h-6.912v-24h47.808z"/>
  <path d="m719.92 24.527h15.936l-26.112 56.832-2.208-4.704 4.512-9.6-5.856-12.768zm-10.752 42.528-4.512 9.6 3.648 7.872-3.552 7.488-31.008-67.488h15.936z"/>
 </g>
</svg>
