<!-- Created with Inkscape (http://www.inkscape.org/) -->
<svg width="512" height="512" version="1.1" viewBox="0 0 135.47 135.47" xmlns="http://www.w3.org/2000/svg">
 <g transform="translate(.5393 -62.259)">
  <g transform="matrix(.58716 0 0 .58716 -.22265 39.008)">
   <g>
    <g stroke-width="8.4667">
     <path d="m68.2 234.75c0.72458-0.9587 1.6323-1.0629 2.5114-1.3005l88.234-0.0983c1.018 0.0831 2.031 0.19064 2.8907 1.065l4.7194 12.722-0.3972 0.47486-102.48-0.0676-0.41267-0.40769z" fill="#1a1a1a"/>
     <path d="m68.375 244.74 92.919 0.038 4.8476 2.4233-0.33889 0.37782-102.15 0.0761-0.10958-0.45778z" fill="#424242"/>
    </g>
    <g>
     <path d="m123.28 218.59-0.21252 17.691s-3.6697 1.733-8.228 1.733c-4.5583 0-8.0155-1.9455-8.0155-1.9455l-0.21252-17.479z" fill="#1f1e1e" stroke-width="10.151"/>
     <path d="m121.89 218.59-0.1949 17.691s-3.3656 1.733-7.5461 1.733c-4.1806 0-7.3512-1.9455-7.3512-1.9455l-0.19491-17.479z" fill="#333" stroke-width="9.7215"/>
    </g>
    <g>
     <rect x="-.53922" y="198.43" width="230.72" height="20.51" ry="10.255" fill="#fff"/>
     <rect x="3.6163" y="66.415" width="222.41" height="136.27" ry="0" fill="#1a1a1a" stroke="#000" stroke-width="8.3112"/>
    </g>
   </g>
   <rect x="7.8989" y="70.621" width="213.94" height="19.527" ry="0" fill="#0f0f0f" fill-opacity=".78161"/>
   <g fill-opacity=".78161">
    <rect x="31.123" y="103.8" width="34.198" height="5.6754" ry="0" fill="#0f0f0f"/>
    <rect x="31.123" y="109.47" width="34.198" height="12.896" ry="0" fill="#303235"/>
   </g>
   <g transform="translate(0 26.312)" fill-opacity=".78161">
    <rect x="31.123" y="103.8" width="34.198" height="5.6754" ry="0" fill="#0f0f0f"/>
    <rect x="31.123" y="109.47" width="34.198" height="12.896" ry="0" fill="#303235"/>
   </g>
   <g transform="translate(0 51.209)" fill-opacity=".78161">
    <rect x="31.123" y="103.8" width="34.198" height="5.6754" ry="0" fill="#0f0f0f"/>
    <rect x="31.123" y="109.47" width="34.198" height="21.71" ry="0" fill="#303235"/>
   </g>
   <g transform="translate(0 81.782)" fill-opacity=".78161">
    <rect x="31.123" y="103.8" width="34.198" height="5.6754" ry="0" fill="#0f0f0f"/>
    <rect x="31.123" y="109.47" width="34.198" height="7.238" ry="0" fill="#303235"/>
   </g>
   <rect x="88.274" y="103.8" width="87.671" height="45.812" ry="0" fill="#303235" fill-opacity=".78161"/>
   <g fill="#0f0f0f">
    <rect x="84.596" y="107.76" width="83.71" height="8.2217" ry="0"/>
    <rect x="124.21" y="120.1" width="45.232" height="2.5633" ry="0"/>
    <rect x="124.31" y="124.8" width="45.232" height="2.5633" ry="0"/>
    <rect x="123.83" y="129.12" width="45.232" height="2.5633" ry="0"/>
    <rect x="124.21" y="133.63" width="31.135" height="2.5633" ry="0"/>
    <rect x="152.69" y="143.79" width="19.627" height="2.5633" ry="0"/>
   </g>
   <g>
    <rect x="93.035" y="119.84" width="27.513" height="21.168" ry="0" fill="#808080"/>
    <path d="m93.035 141.01v-7.9997l5.7409-4.795 4.5073 3.4642 11.536-5.5971 5.7293 4.3435v10.584z" fill="#008000" opacity=".87798"/>
    <rect x="179.24" y="103.8" width="3.7401" height="4.4728" ry=".95899" fill="#5461ac" opacity=".87798"/>
    <rect x="179.24" y="109.63" width="3.7401" height="4.4728" ry=".95899" fill="#54c2ac" opacity=".87798"/>
    <rect x="179.24" y="115.47" width="3.7401" height="4.4728" ry=".95899" fill="#ff6100" opacity=".87798"/>
   </g>
   <rect x="12.759" y="74.891" width="22.193" height="9.1188" ry="0" fill="#808080"/>
   <g transform="translate(-.50613 50.159)">
    <rect x="88.274" y="103.8" width="87.671" height="44.42" ry="0" fill="#303235" fill-opacity=".78161"/>
    <g fill="#0f0f0f">
     <rect x="84.596" y="107.76" width="83.71" height="8.2217" ry="0"/>
     <rect x="124.21" y="120.1" width="45.232" height="2.5633" ry="0"/>
     <rect x="124.31" y="124.8" width="45.232" height="2.5633" ry="0"/>
     <rect x="123.83" y="129.12" width="45.232" height="2.5633" ry="0"/>
     <rect x="124.21" y="133.63" width="31.135" height="2.5633" ry="0"/>
     <rect x="152.69" y="143.79" width="19.627" height="2.5633" ry="0"/>
    </g>
    <g>
     <rect x="93.035" y="119.84" width="27.513" height="21.168" ry="0" fill="#808080"/>
     <path d="m93.035 141.01v-7.9997l5.7409-4.795 4.5073 3.4642 11.536-5.5971 5.7293 4.3435v10.584z" fill="#008000" opacity=".87798"/>
     <rect x="179.24" y="103.8" width="3.7401" height="4.4728" ry=".95899" fill="#5461ac" opacity=".87798"/>
     <rect x="179.24" y="109.63" width="3.7401" height="4.4728" ry=".95899" fill="#54c2ac" opacity=".87798"/>
     <rect x="179.24" y="115.47" width="3.7401" height="4.4728" ry=".95899" fill="#ff6100" opacity=".87798"/>
    </g>
   </g>
   <g fill="#808080">
    <rect x="196.19" y="76.586" width="12.178" height="3.7983" ry="0"/>
    <rect x="181.02" y="76.586" width="12.178" height="3.7983" ry="0"/>
    <rect x="164.27" y="76.586" width="12.178" height="3.7983" ry="0"/>
   </g>
  </g>
 </g>
</svg>
