<!-- Generator: Adobe Illustrator 19.0.0, SVG Export Plug-In . SVG Version: 6.00 Build 0)  -->
<svg width="512" height="512" version="1.1" viewBox="0 0 512 512" xmlns="http://www.w3.org/2000/svg">
 <style type="text/css">.st0{fill:#362701;}
	.st1{fill:#F03C2E;}</style>
 <path id="XMLID_38_" class="st1" d="m502.42 233.14-223.56-223.56c-12.775-12.775-33.617-12.775-46.729 0l-46.393 46.393 58.832 58.832c13.783-4.7066 29.246-1.6809 40.341 9.4128 11.095 11.094 14.119 26.894 9.4128 40.679l56.813 56.813c13.783-4.7066 29.584-1.6809 40.679 9.4128 15.464 15.464 15.464 40.006 0 55.47-15.464 15.464-40.006 15.464-55.47 0-11.43-11.43-14.456-28.575-8.4043-42.693l-52.78-52.78v139.18c3.6979 2.0171 7.3958 4.3704 10.421 7.3958 15.464 15.464 15.464 40.006 0 55.47-15.464 15.464-40.341 15.464-55.47 0-15.464-15.464-15.464-40.341 0-55.47 3.6979-3.6979 8.0683-6.7236 12.775-8.4043v-140.52c-4.7066-2.017-9.0766-4.7066-12.775-8.4043-11.766-11.766-14.456-28.575-8.4043-43.031l-58.832-58.495-153.3 153.3c-12.775 12.775-12.775 33.617 0 46.729l223.56 223.56c12.775 12.775 33.617 12.775 46.729 0l222.55-222.55c12.775-13.111 12.775-33.954 0-46.729" stroke-width="3.3617"/>
</svg>
