<svg width="512" height="512" version="1.1" viewBox="0 0 384 384" xmlns="http://www.w3.org/2000/svg">
 <defs>
  <linearGradient id="b" x1="-.348" x2="1.251" gradientTransform="matrix(-38.065 77.652 -77.652 -38.065 258.72 244.63)" gradientUnits="userSpaceOnUse">
   <stop stop-color="#3e863d" offset=".3"/>
   <stop stop-color="#55934f" offset=".5"/>
   <stop stop-color="#5aad45" offset=".8"/>
  </linearGradient>
  <linearGradient id="d" x1="-.456" x2=".582" gradientTransform="matrix(106.81 -78.917 78.917 106.81 235.19 285.39)" gradientUnits="userSpaceOnUse">
   <stop stop-color="#3e863d" offset=".57"/>
   <stop stop-color="#619857" offset=".72"/>
   <stop stop-color="#76ac64" offset="1"/>
  </linearGradient>
  <linearGradient id="f" x1=".043" x2=".984" gradientTransform="matrix(97.417 0 0 97.417 192.86 279.65)" gradientUnits="userSpaceOnUse">
   <stop stop-color="#6bbf47" offset=".16"/>
   <stop stop-color="#79b461" offset=".38"/>
   <stop stop-color="#75ac64" offset=".47"/>
   <stop stop-color="#659e5a" offset=".7"/>
   <stop stop-color="#3e863d" offset=".9"/>
  </linearGradient>
  <clipPath id="a">
   <path d="m239.03 226.6-42.13 24.317a5.085 5.085 0 0 0-2.546 4.406v48.668c0 1.817 0.968 3.496 2.546 4.406l42.133 24.336a5.1 5.1 0 0 0 5.09 0l42.126-24.336a5.096 5.096 0 0 0 2.54-4.406v-48.668c0-1.816-0.97-3.496-2.55-4.406l-42.12-24.317a5.123 5.123 0 0 0-5.1 0"/>
  </clipPath>
  <clipPath id="c">
   <path d="m195.4 307.09c0.403 0.523 0.907 0.976 1.5 1.316l36.14 20.875 6.02 3.46c0.9 0.52 1.926 0.74 2.934 0.665 0.336-0.027 0.672-0.09 1-0.183l44.434-81.36c-0.34-0.37-0.738-0.68-1.184-0.94l-27.586-15.93-14.582-8.39a5.318 5.318 0 0 0-1.32-0.53z"/>
  </clipPath>
  <clipPath id="e">
   <path d="m241.07 225.95a5.14 5.14 0 0 0-2.035 0.652l-42.01 24.247 45.3 82.51c0.63-0.09 1.25-0.3 1.81-0.624l42.13-24.336a5.105 5.105 0 0 0 2.46-3.476l-46.18-78.89a5.29 5.29 0 0 0-1.03-0.102c-0.14 0-0.28 7e-3 -0.42 0.02"/>
  </clipPath>
 </defs>
 <g transform="matrix(.86805 0 0 .86805 -.00046425 74.409)">
  <path d="m218.65 270.93c-1.46 0-2.91-0.383-4.19-1.12l-13.337-7.896c-1.992-1.114-1.02-1.508-0.363-1.735 2.656-0.93 3.195-1.14 6.03-2.75 0.298-0.17 0.688-0.11 0.993 0.07l10.246 6.08c0.37 0.2 0.895 0.2 1.238 0l39.95-23.06c0.37-0.21 0.61-0.64 0.61-1.08v-46.1c0-0.46-0.24-0.87-0.618-1.1l-39.934-23.04c-0.37-0.22-0.86-0.22-1.23 0l-39.926 23.04c-0.387 0.22-0.633 0.65-0.633 1.09v46.1c0 0.44 0.24 0.86 0.62 1.07l10.94 6.32c5.94 2.97 9.57-0.53 9.57-4.05v-45.5c0-0.65 0.51-1.15 1.16-1.15h5.06c0.63 0 1.15 0.5 1.15 1.15v45.52c0 7.92-4.32 12.47-11.83 12.47-2.31 0-4.13 0-9.21-2.5l-10.48-6.04a8.447 8.447 0 0 1-4.19-7.29v-46.1c0-3 1.6-5.8 4.19-7.28l39.99-23.07c2.53-1.43 5.89-1.43 8.4 0l39.94 23.08a8.428 8.428 0 0 1 4.19 7.28v46.1c0 2.99-1.61 5.78-4.19 7.28l-39.94 23.07a8.397 8.397 0 0 1-4.21 1.12" fill="#689f63"/>
  <path d="m230.99 239.16c-17.48 0-21.145-8.024-21.145-14.754 0-0.64 0.516-1.15 1.157-1.15h5.16c0.57 0 1.05 0.415 1.14 0.978 0.78 5.258 3.1 7.91 13.67 7.91 8.42 0 12-1.902 12-6.367 0-2.57-1.02-4.48-14.1-5.76-10.94-1.08-17.7-3.49-17.7-12.24 0-8.06 6.8-12.86 18.19-12.86 12.79 0 19.13 4.44 19.93 13.98a1.164 1.164 0 0 1-1.16 1.26h-5.19c-0.54 0-1.01-0.38-1.12-0.9-1.25-5.53-4.27-7.3-12.48-7.3-9.19 0-10.26 3.2-10.26 5.6 0 2.91 1.26 3.76 13.66 5.4 12.28 1.63 18.11 3.93 18.11 12.56 0 8.7-7.26 13.69-19.92 13.69m48.66-48.89h1.34c1.1 0 1.31-0.77 1.31-1.22 0-1.18-0.81-1.18-1.26-1.18h-1.38zm-1.63-3.78h2.97c1.02 0 3.02 0 3.02 2.28 0 1.59-1.02 1.92-1.63 2.12 1.19 0.08 1.27 0.86 1.43 1.96 0.08 0.69 0.21 1.88 0.45 2.28h-1.83c-0.05-0.4-0.33-2.6-0.33-2.72-0.12-0.49-0.29-0.73-0.9-0.73h-1.51v3.46h-1.67zm-3.57 4.3c0 3.58 2.89 6.48 6.44 6.48 3.58 0 6.47-2.96 6.47-6.48 0-3.59-2.93-6.44-6.48-6.44-3.5 0-6.44 2.81-6.44 6.43m14.16 0.03c0 4.24-3.47 7.7-7.7 7.7-4.2 0-7.7-3.42-7.7-7.7 0-4.36 3.58-7.7 7.7-7.7 4.15 0 7.69 3.35 7.69 7.7" fill="#689f63"/>
  <path d="m94.936 90.55c0-1.84-0.97-3.53-2.558-4.445l-42.356-24.37a4.946 4.946 0 0 0-2.328-0.67h-0.438c-0.812 0.03-1.613 0.25-2.34 0.67l-42.354 24.37a5.154 5.154 0 0 0-2.562 4.45l0.093 65.64c0 0.91 0.47 1.76 1.27 2.21 0.78 0.48 1.76 0.48 2.54 0l25.18-14.42c1.59-0.946 2.56-2.618 2.56-4.44v-30.665a5.1 5.1 0 0 1 2.555-4.43l10.72-6.174a5.086 5.086 0 0 1 2.56-0.688c0.876 0 1.77 0.226 2.544 0.687l10.715 6.172c1.586 0.91 2.56 2.6 2.56 4.43v30.663c0 1.82 0.983 3.5 2.565 4.44l25.164 14.41a2.5 2.5 0 0 0 2.56 0 2.568 2.568 0 0 0 1.268-2.21zm199.87 34.176c0 0.457-0.243 0.88-0.64 1.106l-14.548 8.386a1.282 1.282 0 0 1-1.277 0l-14.55-8.386c-0.4-0.227-0.64-0.65-0.64-1.106v-16.796c0-0.458 0.24-0.88 0.63-1.11l14.54-8.4c0.4-0.23 0.89-0.23 1.29 0l14.55 8.4c0.4 0.23 0.64 0.652 0.64 1.11zm3.93-124.4a2.568 2.568 0 0 0-2.544 0.027c-0.78 0.46-1.262 1.3-1.262 2.21v65a1.788 1.788 0 0 1-2.684 1.55l-10.61-6.111a5.108 5.108 0 0 0-5.112 0l-42.37 24.453a5.105 5.105 0 0 0-2.56 4.42v48.92c0 1.83 0.977 3.51 2.56 4.43l42.37 24.47c1.582 0.91 3.53 0.91 5.117 0l42.37-24.48c1.58-0.92 2.56-2.6 2.56-4.43v-121.92a5.128 5.128 0 0 0-2.63-4.47zm141.09 107.16a5.116 5.116 0 0 0 2.543-4.422v-11.856c0-1.824-0.97-3.507-2.547-4.425l-42.1-24.44a5.113 5.113 0 0 0-5.13 0l-42.36 24.45c-1.59 0.92-2.56 2.6-2.56 4.43v48.9c0 1.84 0.99 3.54 2.58 4.45l42.09 23.99c1.55 0.89 3.45 0.9 5.02 0.03l25.46-14.15c0.8-0.45 1.31-1.3 1.31-2.22s-0.49-1.78-1.29-2.23l-42.62-24.46c-0.8-0.45-1.29-1.3-1.29-2.21v-15.34c0-0.916 0.48-1.76 1.28-2.216l13.26-7.65c0.79-0.46 1.76-0.46 2.55 0l13.27 7.65c0.79 0.45 1.28 1.3 1.28 2.21v12.06c0 0.91 0.49 1.76 1.28 2.22 0.79 0.45 1.77 0.45 2.56-0.01z" fill="#fff" fill-rule="evenodd"/>
  <path d="m394.54 105.2a0.97 0.97 0 0 1 0.98 0l8.13 4.69c0.304 0.176 0.49 0.5 0.49 0.85v9.39c0 0.35-0.186 0.674-0.49 0.85l-8.13 4.69a0.97 0.97 0 0 1-0.98 0l-8.125-4.69a0.979 0.979 0 0 1-0.5-0.85v-9.39c0-0.35 0.18-0.674 0.49-0.85z" fill="#689f63" fill-rule="evenodd"/>
  <g transform="translate(-78.306 -164.02)" clip-path="url(#a)">
   <path d="m331.36 246.79-118.72-58.19-60.87 124.17 118.71 58.193z" fill="url(#b)"/>
  </g>
  <g transform="translate(-78.306 -164.02)" clip-path="url(#c)">
   <path d="m144.07 264 83.825 113.45 110.86-81.906-83.83-113.45z" fill="url(#d)"/>
  </g>
  <g transform="translate(-78.306 -164.02)" clip-path="url(#e)">
   <path d="m197.02 225.93v107.43h91.683v-107.43z" fill="url(#f)"/>
  </g>
 </g>
</svg>
