<?xml version="1.0" encoding="UTF-8" standalone="no"?>
<svg
   viewBox="0 0 28.087671 5.1134505"
   version="1.1"
   id="svg5"
   inkscape:version="1.1.1 (1:1.1+202109281949+c3084ef5ed)"
   sodipodi:docname="dibujo.svg"
   xmlns:inkscape="http://www.inkscape.org/namespaces/inkscape"
   xmlns:sodipodi="http://sodipodi.sourceforge.net/DTD/sodipodi-0.dtd"
   xmlns="http://www.w3.org/2000/svg"
   xmlns:svg="http://www.w3.org/2000/svg">
  <sodipodi:namedview
     id="namedview7"
     pagecolor="#ffffff"
     bordercolor="#666666"
     borderopacity="1.0"
     inkscape:pageshadow="2"
     inkscape:pageopacity="0.0"
     inkscape:pagecheckerboard="0"
     inkscape:document-units="mm"
     showgrid="false"
     fit-margin-top="0"
     fit-margin-left="0"
     fit-margin-right="0"
     fit-margin-bottom="0"
     inkscape:zoom="32"
     inkscape:cx="16.265625"
     inkscape:cy="-1.6875"
     inkscape:window-width="1366"
     inkscape:window-height="715"
     inkscape:window-x="0"
     inkscape:window-y="0"
     inkscape:window-maximized="1"
     inkscape:current-layer="layer1"
     inkscape:lockguides="false" />
  <defs
     id="defs2">
    <clipPath
       clipPathUnits="userSpaceOnUse"
       id="clipath_lpe_path-effect78587">
      <path
         id="path78625"
         style="display:none;fill:#ffffff;fill-opacity:1;stroke:none;stroke-width:0.138782;stroke-linecap:butt;stroke-linejoin:miter;stroke-miterlimit:4;stroke-dasharray:none;stroke-opacity:1"
         d="M -18.889245,9.623353 V 8.6448374 h 2.132813 V 4.7092905 h -2.132813 l -2.5,-0.00391 c -0.0088,2.5647707 1.749579,4.3260898 2.5,4.9179685 z" />
      <path
         id="lpe_path-effect78587"
         style="display:inline;fill:#ffffff;fill-opacity:1;stroke:none;stroke-width:0.138782;stroke-linecap:butt;stroke-linejoin:miter;stroke-miterlimit:4;stroke-dasharray:none;stroke-opacity:1"
         class="powerclip"
         d="m -36.091357,-5.5839844 h 24 V 14.996016 h -24 z M -18.889245,9.623353 V 8.6448374 h 2.132813 V 4.7092905 h -2.132813 l -2.5,-0.00391 c -0.0088,2.5647707 1.749579,4.3260898 2.5,4.9179685 z" />
    </clipPath>
    <inkscape:path-effect
       effect="powerclip"
       id="path-effect78587"
       is_visible="true"
       lpeversion="1"
       inverse="true"
       flatten="false"
       hide_clip="false"
       message="Utilice la regla de relleno parimpar en el diálogo &lt;b&gt;Relleno y borde&lt;/b&gt; si el resultado no está aplanada después de convertir el recorte en trayectos." />
    <clipPath
       clipPathUnits="userSpaceOnUse"
       id="clipPath82747">
      <path
         id="lpe_path-effect82751"
         style="fill:#ffffff;fill-opacity:1;stroke:none;stroke-width:0.138782;stroke-linecap:butt;stroke-linejoin:miter;stroke-miterlimit:4;stroke-dasharray:none;stroke-opacity:1"
         class="powerclip"
         d="M -20.205674,-5.5814151 H 3.7943257 V 14.998585 H -20.205674 Z m 6.797471,5.3782901 v 0.97851562 h -2.132813 V 4.7109375 h 2.132813 l 2.5,0.00391 c 0.0088,-2.5647707 -1.749579,-4.3260898 -2.5,-4.9179688 z" />
    </clipPath>
  </defs>
  <g
     inkscape:label="Capa 1"
     inkscape:groupmode="layer"
     id="layer1"
     transform="translate(-52.141558,-126.47698)">
    <rect
       style="opacity:1;fill:#000000;fill-rule:evenodd;stroke:none;stroke-width:0.435889;stroke-linecap:round;stroke-miterlimit:4;stroke-dasharray:none"
       id="rect57"
       width="28.087999"
       height="5.1129999"
       x="52.14156"
       y="126.47698"
       ry="0.99955177" />
    <path
       id="path78583"
       style="display:inline;fill:#ff7800;fill-opacity:1;fill-rule:evenodd;stroke:none;stroke-width:0.115832;stroke-linecap:round"
       d="m -20.690599,4.7060157 a 3.4007607,2.5700033 0 0 1 -3.400758,2.5700039 3.4007607,2.5700033 0 0 1 -3.400763,-2.5700039 3.4007607,2.5700033 0 0 1 3.400763,-2.5700031 3.4007607,2.5700033 0 0 1 3.400758,2.5700031 z m 3.599242,0 a 6.9999992,5.2899994 0 0 1 -7,5.2900003 6.9999992,5.2899994 0 0 1 -7,-5.2900003 6.9999992,5.2899994 0 0 1 7,-5.29000009 6.9999992,5.2899994 0 0 1 7,5.29000009 z"
       clip-path="url(#clipath_lpe_path-effect78587)"
       inkscape:path-effect="#path-effect78587"
       inkscape:original-d="m -20.690599,4.7060157 a 3.4007607,2.5700033 0 0 1 -3.400758,2.5700039 3.4007607,2.5700033 0 0 1 -3.400763,-2.5700039 3.4007607,2.5700033 0 0 1 3.400763,-2.5700031 3.4007607,2.5700033 0 0 1 3.400758,2.5700031 z m 3.599242,0 a 6.9999992,5.2899994 0 0 1 -7,5.2900003 6.9999992,5.2899994 0 0 1 -7,-5.2900003 6.9999992,5.2899994 0 0 1 7,-5.29000009 6.9999992,5.2899994 0 0 1 7,5.29000009 z"
       transform="matrix(0.26458333,0,0,0.26458333,80.6751,127.78858)" />
    <path
       d="m 68.019651,131.58874 v -0.51112 c -1.575075,0.0356 -0.612746,-1.43995 -1.406446,-2.04449 0.757153,-0.65079 -0.117922,-2.04153 1.406446,-2.04449 v -0.51112 c -2.298745,-0.0405 -0.96782,2.22306 -2.048574,2.30005 l 0.0036,0.51112 c 1.078074,0.0974 -0.23277,2.37249 2.044996,2.30005 z"
       id="path78589"
       sodipodi:nodetypes="cccccccccccccccc"
       inkscape:label="llaves1"
       style="fill:#002a8d;fill-opacity:1;stroke-width:0.121823" />
    <path
       d="m 80.22565,128.77758 c -1.06316,-0.084 0.245821,-2.33818 -2.044994,-2.30005 v 0.51112 c 1.517076,-0.0666 0.656593,1.48636 1.406446,2.04449 -0.820735,0.7811 0.161808,2.02186 -1.406446,2.04448 v 0.51113 c 2.293644,0.0693 0.960718,-2.1165 2.048573,-2.30005 z"
       id="path78591"
       sodipodi:nodetypes="cccccccccccccccc"
       inkscape:label="llaves2"
       style="fill:#ff7800;fill-opacity:1;stroke-width:0.121823" />
    <g
       id="g78599"
       transform="matrix(0.26458333,0,0,0.26458333,53.373521,92.971457)">
      <path
         style="opacity:1;fill:#ff7800;fill-opacity:0.75;stroke:none;stroke-width:1px;stroke-linecap:butt;stroke-linejoin:miter;stroke-opacity:1"
         d="m 10.379951,131.0061 3.472315,10.58434 h -3.404701 l -2.311446,-7.26766 z"
         id="path78593"
         sodipodi:nodetypes="ccccc" />
      <path
         style="fill:#002a8d;fill-opacity:1;stroke:none;stroke-width:0.1;stroke-linecap:butt;stroke-linejoin:miter;stroke-miterlimit:4;stroke-dasharray:none;stroke-opacity:1"
         d="m 7.744756,141.59044 1.837783,-2.71982 H 10.3372 c 0.671222,0 3.652491,0 4.807864,-3.77426 l 1.369263,-4.09026 h 3.281855 l -1.561506,4.84296 c -1.85118,5.74138 -5.671519,5.74138 -7.67112,5.74138 z"
         id="path78595"
         sodipodi:nodetypes="ccccccccc" />
      <path
         style="fill:#ff7800;fill-opacity:1;stroke:none;stroke-width:1px;stroke-linecap:butt;stroke-linejoin:miter;stroke-opacity:1"
         d="m 8.598286,138.87062 -1.848978,2.71982 H 0 l 7.081267,-10.58433 3.298684,-1e-5 -5.320588,7.86452 z"
         id="path78597"
         sodipodi:nodetypes="ccccccc" />
    </g>
    <path
       style="fill:#ff7800;fill-opacity:1;stroke:none;stroke-width:0.0264583;stroke-linecap:butt;stroke-linejoin:miter;stroke-miterlimit:4;stroke-dasharray:none;stroke-opacity:1"
       d="m 67.097639,127.63349 0.922012,2.80044 0.423706,-1.33241 -0.477396,-1.46803 z"
       id="path78601" />
    <path
       style="fill:#ff7800;fill-opacity:1;stroke:none;stroke-width:0.0264583;stroke-linecap:butt;stroke-linejoin:miter;stroke-miterlimit:4;stroke-dasharray:none;stroke-opacity:1"
       d="m 68.915435,127.63349 0.922012,2.80044 0.423709,-1.33241 -0.477396,-1.46803 z"
       id="path78603" />
    <path
       style="fill:#002a8d;fill-opacity:1;stroke:none;stroke-width:0.264583px;stroke-linecap:butt;stroke-linejoin:miter;stroke-opacity:1"
       d="m 68.910196,127.63349 h 0.873564 l -0.907113,2.80044 h -0.856996 z"
       id="path78605" />
    <path
       style="fill:#002a8d;fill-opacity:1;stroke:none;stroke-width:0.264583px;stroke-linecap:butt;stroke-linejoin:miter;stroke-opacity:1"
       d="m 70.727992,127.63349 h 1.139349 v 0.35993 h -0.383207 l -0.789689,2.44051 h -0.856998 z"
       id="path78607"
       sodipodi:nodetypes="ccccccc" />
    <path
       style="fill:#ff7800;fill-opacity:1;stroke:none;stroke-width:0.264583px;stroke-linecap:butt;stroke-linejoin:miter;stroke-opacity:1"
       d="m 71.484134,128.26035 h 0.383207 v 2.17357 h -1.109943 z"
       id="path78609" />
    <path
       style="fill:#002a8d;fill-opacity:1;stroke:none;stroke-width:0.0264583;stroke-linecap:butt;stroke-linejoin:miter;stroke-miterlimit:4;stroke-dasharray:none;stroke-opacity:1"
       d="m 75.055945,127.63349 -0.486246,0.71962 h -0.19967 c -0.177594,0 -0.966388,0 -1.27208,0.9986 l -0.362286,1.08221 h -0.868322 l 0.413146,-1.28136 c 0.489792,-1.51907 1.50059,-1.51907 2.029653,-1.51907 z"
       id="path78611"
       sodipodi:nodetypes="ccccccccc" />
    <path
       style="fill:none;stroke:none;stroke-width:0.264583px;stroke-linecap:butt;stroke-linejoin:miter;stroke-opacity:1"
       d="m 75.676782,129.97049 v -1.87356 l -0.476067,0.9341 z"
       id="path78613" />
    <path
       id="path78615"
       clip-path="url(#clipPath82747)"
       style="display:inline;fill:#002a8d;fill-opacity:1;fill-rule:evenodd;stroke:none;stroke-width:0.115832;stroke-linecap:round"
       d="m -8.2050781,-0.58203125 a 6.9999992,5.2899994 0 0 0 -6.9999999,5.29101565 6.9999992,5.2899994 0 0 0 6.9999999,5.2890625 6.9999992,5.2899994 0 0 0 7,-5.2890625 6.9999992,5.2899994 0 0 0 -7,-5.29101565 z m 0,2.72070315 a 3.4007607,2.5700033 0 0 1 3.4003906,2.5703125 3.4007607,2.5700033 0 0 1 -3.4003906,2.5703125 3.4007607,2.5700033 0 0 1 -3.4003909,-2.5703125 3.4007607,2.5700033 0 0 1 3.4003909,-2.5703125 z"
       transform="matrix(0.26458333,0,0,0.26458333,79.223524,127.78805)" />
    <text
       xml:space="preserve"
       style="font-size:4.23333px;line-height:1.25;font-family:sans-serif;fill:#ff7800;fill-opacity:1;stroke-width:0.264583"
       x="58.30051"
       y="130.36076"
       id="text78619"><tspan
         sodipodi:role="line"
         id="tspan78617"
         x="58.30051"
         y="130.36076"
         style="font-style:normal;font-variant:normal;font-weight:bold;font-stretch:normal;font-size:4.23333px;font-family:sans-serif;-inkscape-font-specification:'sans-serif Bold';stroke-width:0.264583">)</tspan></text>
    <text
       xml:space="preserve"
       style="font-size:4.23333px;line-height:1.25;font-family:sans-serif;fill:#002a8d;fill-opacity:1;stroke-width:0.264583"
       x="-53.712521"
       y="130.36076"
       id="text78623"
       transform="scale(-1,1)"><tspan
         sodipodi:role="line"
         id="tspan78621"
         x="-53.712521"
         y="130.36076"
         style="font-style:normal;font-variant:normal;font-weight:bold;font-stretch:normal;font-size:4.23333px;font-family:sans-serif;-inkscape-font-specification:'sans-serif Bold';fill:#002a8d;fill-opacity:1;stroke-width:0.264583">)</tspan></text>
    <text
       xml:space="preserve"
       style="font-size:4.23333px;line-height:1.15;font-family:sans-serif;text-align:start;letter-spacing:-0.85725px;word-spacing:0px;text-anchor:start;fill:#002a8d;fill-opacity:1;stroke-width:0.264583"
       x="59.989471"
       y="130.35869"
       id="text80304"><tspan
         sodipodi:role="line"
         id="tspan80302"
         x="59.989471"
         y="130.35869"
         dx="0"
         style="font-style:normal;font-variant:normal;font-weight:bold;font-stretch:normal;font-size:4.23333px;font-family:sans-serif;-inkscape-font-specification:'sans-serif Bold';stroke-width:0.264583">=</tspan></text>
    <text
       xml:space="preserve"
       style="font-style:normal;font-variant:normal;font-weight:bold;font-stretch:normal;font-size:4.23333px;line-height:1.25;font-family:sans-serif;-inkscape-font-specification:'sans-serif Bold';fill:#ff7800;fill-opacity:1;stroke-width:0.264583"
       x="62.639439"
       y="130.36076"
       id="text114757"><tspan
         sodipodi:role="line"
         id="tspan114755"
         x="62.639439"
         y="130.36076"
         style="stroke-width:0.264583">&gt;</tspan></text>
  </g>
</svg>
