<?xml version="1.0" encoding="UTF-8" standalone="no"?>
<!-- Created with Inkscape (http://www.inkscape.org/) -->

<svg
   width="381mm"
   height="279.93469mm"
   viewBox="0 0 381 279.9347"
   version="1.1"
   id="svg5"
   inkscape:version="1.1.1 (1:1.1+202109281949+c3084ef5ed)"
   sodipodi:docname="logo_vertical.svg"
   inkscape:export-filename="/home/wladimir/AppWebs/AJ-Pack_Iconos/iconos_Portafolio/logo_vertical.png"
   inkscape:export-xdpi="96"
   inkscape:export-ydpi="96"
   xmlns:inkscape="http://www.inkscape.org/namespaces/inkscape"
   xmlns:sodipodi="http://sodipodi.sourceforge.net/DTD/sodipodi-0.dtd"
   xmlns="http://www.w3.org/2000/svg"
   xmlns:svg="http://www.w3.org/2000/svg">
  <sodipodi:namedview
     id="namedview7"
     pagecolor="#ffffff"
     bordercolor="#666666"
     borderopacity="1.0"
     inkscape:pageshadow="2"
     inkscape:pageopacity="0.0"
     inkscape:pagecheckerboard="0"
     inkscape:document-units="mm"
     showgrid="false"
     fit-margin-top="0"
     fit-margin-left="0"
     fit-margin-right="0"
     fit-margin-bottom="0"
     inkscape:zoom="0.50282562"
     inkscape:cx="719.9315"
     inkscape:cy="529.01044"
     inkscape:window-width="1366"
     inkscape:window-height="715"
     inkscape:window-x="0"
     inkscape:window-y="0"
     inkscape:window-maximized="1"
     inkscape:current-layer="layer1"
     inkscape:lockguides="true" />
  <defs
     id="defs2">
    <clipPath
       clipPathUnits="userSpaceOnUse"
       id="clipath_lpe_path-effect174402">
      <path
         id="path174420"
         style="display:none;fill:#ffffff;fill-opacity:1;stroke:none;stroke-width:0.138782;stroke-linecap:butt;stroke-linejoin:miter;stroke-miterlimit:4;stroke-dasharray:none;stroke-opacity:1"
         d="M -18.889245,9.623353 V 8.6448374 h 2.132813 V 4.7092905 h -2.132813 l -2.5,-0.00391 c -0.0088,2.5647707 1.749579,4.3260898 2.5,4.9179685 z" />
      <path
         id="lpe_path-effect174402"
         style="display:inline;fill:#ffffff;fill-opacity:1;stroke:none;stroke-width:0.138782;stroke-linecap:butt;stroke-linejoin:miter;stroke-miterlimit:4;stroke-dasharray:none;stroke-opacity:1"
         class="powerclip"
         d="m -36.091357,-5.5839844 h 24 V 14.996016 h -24 z M -18.889245,9.623353 V 8.6448374 h 2.132813 V 4.7092905 h -2.132813 l -2.5,-0.00391 c -0.0088,2.5647707 1.749579,4.3260898 2.5,4.9179685 z" />
    </clipPath>
    <inkscape:path-effect
       effect="powerclip"
       id="path-effect174402"
       is_visible="true"
       lpeversion="1"
       inverse="true"
       flatten="false"
       hide_clip="false"
       message="Utilice la regla de relleno parimpar en el diálogo &lt;b&gt;Relleno y borde&lt;/b&gt; si el resultado no está aplanada después de convertir el recorte en trayectos." />
    <clipPath
       clipPathUnits="userSpaceOnUse"
       id="clipPath82747">
      <path
         id="lpe_path-effect82751"
         style="fill:#ffffff;fill-opacity:1;stroke:none;stroke-width:0.138782;stroke-linecap:butt;stroke-linejoin:miter;stroke-miterlimit:4;stroke-dasharray:none;stroke-opacity:1"
         class="powerclip"
         d="M -20.205674,-5.5814151 H 3.7943257 V 14.998585 H -20.205674 Z m 6.797471,5.3782901 v 0.97851562 h -2.132813 V 4.7109375 h 2.132813 l 2.5,0.00391 c 0.0088,-2.5647707 -1.749579,-4.3260898 -2.5,-4.9179688 z" />
    </clipPath>
  </defs>
  <g
     inkscape:label="Capa 1"
     inkscape:groupmode="layer"
     id="layer1"
     transform="translate(-63.351441,-104.76496)">
    <path
       id="path174386"
       style="fill:#002a8d;fill-opacity:1;stroke:none;stroke-width:0.392937;stroke-linecap:butt;stroke-linejoin:miter;stroke-miterlimit:4;stroke-dasharray:none;stroke-opacity:1"
       d="m 189.76816,104.76496 c -7.8572,0 -22.87153,-0.004 -30.14554,22.55535 l -6.13187,19.03301 -5.37993,16.07027 c -4.53986,14.83035 -16.25708,14.83475 -18.89462,14.83475 h -2.96211 l -7.22176,10.68302 7.22176,10.69057 h 2.96211 c 2.63767,0 14.35476,-0.003 18.89462,14.82721 l 5.37993,16.07058 6.13187,19.0327 c 7.27401,22.55975 22.28834,22.56321 30.14554,22.56321 h 11.07433 l -7.22183,-10.69057 h -2.96211 c -2.63735,0 -14.35478,0.003 -18.89459,-14.8272 l -5.3798,-16.07814 -6.13209,-19.02546 c -7.27389,-22.55975 -22.28812,-22.5629 -30.14535,-22.5629 7.85723,0 22.87146,0.004 30.14535,-22.55534 l 6.13209,-19.0327 5.3798,-16.07059 c 4.53981,-14.83035 16.25718,-14.83475 18.89459,-14.83475 h 2.96211 l 7.22183,-10.68302 z"
       inkscape:export-filename="/home/wladimir/AppWebs/AJ-Pack_Iconos/iconos_Portafolio/logo_vertical_negro.png"
       inkscape:export-xdpi="96"
       inkscape:export-ydpi="96" />
    <g
       id="g174394"
       transform="matrix(8.5377564,0,0,8.5377564,169.95278,-975.73625)"
       inkscape:export-filename="/home/wladimir/AppWebs/AJ-Pack_Iconos/iconos_Portafolio/logo_vertical_negro.png"
       inkscape:export-xdpi="96"
       inkscape:export-ydpi="96">
      <path
         style="opacity:1;fill:#ff7800;fill-opacity:0.75;stroke:none;stroke-width:1px;stroke-linecap:butt;stroke-linejoin:miter;stroke-opacity:1"
         d="m 10.379951,131.0061 3.472315,10.58434 h -3.404701 l -2.311446,-7.26766 z"
         id="path174388"
         sodipodi:nodetypes="ccccc" />
      <path
         style="fill:#002a8d;fill-opacity:1;stroke:none;stroke-width:0.1;stroke-linecap:butt;stroke-linejoin:miter;stroke-miterlimit:4;stroke-dasharray:none;stroke-opacity:1"
         d="m 7.744756,141.59044 1.837783,-2.71982 H 10.3372 c 0.671222,0 3.652491,0 4.807864,-3.77426 l 1.369263,-4.09026 h 3.281855 l -1.561506,4.84296 c -1.85118,5.74138 -5.671519,5.74138 -7.67112,5.74138 z"
         id="path174390"
         sodipodi:nodetypes="ccccccccc" />
      <path
         style="fill:#ff7800;fill-opacity:1;stroke:none;stroke-width:1px;stroke-linecap:butt;stroke-linejoin:miter;stroke-opacity:1"
         d="m 8.598286,138.87062 -1.848978,2.71982 H 0 l 7.081267,-10.58433 3.298684,-1e-5 -5.320588,7.86452 z"
         id="path174392"
         sodipodi:nodetypes="ccccccc" />
    </g>
    <path
       id="path174396"
       style="fill:#ff7800;fill-opacity:1;stroke:none;stroke-width:0.392937;stroke-linecap:butt;stroke-linejoin:miter;stroke-miterlimit:4;stroke-dasharray:none;stroke-opacity:1"
       d="m 317.93715,104.76496 c 7.85719,0 22.87152,-0.004 30.14554,22.55535 l 6.13189,19.03301 5.3799,16.07027 c 4.53987,14.83035 16.25708,14.83475 18.89465,14.83475 h 2.96211 l 7.22174,10.68302 -7.22174,10.69057 h -2.96211 c -2.63766,0 -14.35478,-0.003 -18.89465,14.82721 l -5.3799,16.07058 -6.13189,19.0327 c -7.27402,22.55975 -22.28835,22.56321 -30.14554,22.56321 h -11.0743 l 7.22183,-10.69057 h 2.9621 c 2.63736,0 14.35479,0.003 18.89456,-14.8272 l 5.3798,-16.07814 6.13209,-19.02546 c 7.27392,-22.55975 22.28816,-22.5629 30.14538,-22.5629 -7.85722,0 -22.87146,0.004 -30.14538,-22.55534 l -6.13209,-19.0327 -5.3798,-16.07059 c -4.53977,-14.83035 -16.25714,-14.83475 -18.89456,-14.83475 h -2.9621 l -7.22183,-10.68302 z"
       inkscape:export-filename="/home/wladimir/AppWebs/AJ-Pack_Iconos/iconos_Portafolio/logo_vertical_negro.png"
       inkscape:export-xdpi="96"
       inkscape:export-ydpi="96" />
    <path
       id="path174398"
       style="display:inline;fill:#ff7800;fill-opacity:1;fill-rule:evenodd;stroke:none;stroke-width:0.115832;stroke-linecap:round"
       d="m -20.690599,4.7060157 a 3.4007607,2.5700033 0 0 1 -3.400758,2.5700039 3.4007607,2.5700033 0 0 1 -3.400763,-2.5700039 3.4007607,2.5700033 0 0 1 3.400763,-2.5700031 3.4007607,2.5700033 0 0 1 3.400758,2.5700031 z m 3.599242,0 a 6.9999992,5.2899994 0 0 1 -7,5.2900003 6.9999992,5.2899994 0 0 1 -7,-5.2900003 6.9999992,5.2899994 0 0 1 7,-5.29000009 6.9999992,5.2899994 0 0 1 7,5.29000009 z"
       clip-path="url(#clipath_lpe_path-effect174402)"
       inkscape:path-effect="#path-effect174402"
       inkscape:original-d="m -20.690599,4.7060157 a 3.4007607,2.5700033 0 0 1 -3.400758,2.5700039 3.4007607,2.5700033 0 0 1 -3.400763,-2.5700039 3.4007607,2.5700033 0 0 1 3.400763,-2.5700031 3.4007607,2.5700033 0 0 1 3.400758,2.5700031 z m 3.599242,0 a 6.9999992,5.2899994 0 0 1 -7,5.2900003 6.9999992,5.2899994 0 0 1 -7,-5.2900003 6.9999992,5.2899994 0 0 1 7,-5.29000009 6.9999992,5.2899994 0 0 1 7,5.29000009 z"
       transform="matrix(8.5378073,0,0,8.5378073,501.48088,299.33734)"
       inkscape:export-filename="/home/wladimir/AppWebs/AJ-Pack_Iconos/iconos_Portafolio/logo_vertical_negro.png"
       inkscape:export-xdpi="96"
       inkscape:export-ydpi="96" />
    <path
       style="fill:#ff7800;fill-opacity:1;stroke:none;stroke-width:0.85378;stroke-linecap:butt;stroke-linejoin:miter;stroke-miterlimit:4;stroke-dasharray:none;stroke-opacity:1"
       d="m 63.351441,294.33269 29.75228,90.36696 13.672539,-42.99522 -15.405037,-47.37174 z"
       id="path174404"
       inkscape:export-filename="/home/wladimir/AppWebs/AJ-Pack_Iconos/iconos_Portafolio/logo_vertical_negro.png"
       inkscape:export-xdpi="96"
       inkscape:export-ydpi="96" />
    <path
       style="fill:#ff7800;fill-opacity:1;stroke:none;stroke-width:0.85378;stroke-linecap:butt;stroke-linejoin:miter;stroke-miterlimit:4;stroke-dasharray:none;stroke-opacity:1"
       d="m 122.00968,294.33269 29.75228,90.36696 13.67264,-42.99522 -15.40504,-47.37174 z"
       id="path174406"
       inkscape:export-filename="/home/wladimir/AppWebs/AJ-Pack_Iconos/iconos_Portafolio/logo_vertical_negro.png"
       inkscape:export-xdpi="96"
       inkscape:export-ydpi="96" />
    <path
       style="fill:#002a8d;fill-opacity:1;stroke:none;stroke-width:8.5378px;stroke-linecap:butt;stroke-linejoin:miter;stroke-opacity:1"
       d="m 121.84061,294.33269 h 28.18895 l -29.27153,90.36696 H 93.103721 Z"
       id="path174408"
       inkscape:export-filename="/home/wladimir/AppWebs/AJ-Pack_Iconos/iconos_Portafolio/logo_vertical_negro.png"
       inkscape:export-xdpi="96"
       inkscape:export-ydpi="96" />
    <path
       style="fill:#002a8d;fill-opacity:1;stroke:none;stroke-width:8.5378px;stroke-linecap:butt;stroke-linejoin:miter;stroke-opacity:1"
       d="m 180.49885,294.33269 h 36.76552 v 11.61454 h -12.36566 l -25.48237,78.75242 h -27.65438 z"
       id="path174410"
       sodipodi:nodetypes="ccccccc"
       inkscape:export-filename="/home/wladimir/AppWebs/AJ-Pack_Iconos/iconos_Portafolio/logo_vertical_negro.png"
       inkscape:export-xdpi="96"
       inkscape:export-ydpi="96" />
    <path
       style="fill:#ff7800;fill-opacity:1;stroke:none;stroke-width:8.5378px;stroke-linecap:butt;stroke-linejoin:miter;stroke-opacity:1"
       d="m 204.89871,314.56067 h 12.36566 v 70.13898 h -35.81662 z"
       id="path174412"
       inkscape:export-filename="/home/wladimir/AppWebs/AJ-Pack_Iconos/iconos_Portafolio/logo_vertical_negro.png"
       inkscape:export-xdpi="96"
       inkscape:export-ydpi="96" />
    <path
       style="fill:#002a8d;fill-opacity:1;stroke:none;stroke-width:0.85378;stroke-linecap:butt;stroke-linejoin:miter;stroke-miterlimit:4;stroke-dasharray:none;stroke-opacity:1"
       d="m 320.15706,294.33269 -15.69062,23.22121 h -6.44314 c -5.73075,0 -31.18426,0 -41.0486,32.22386 l -11.69055,34.92189 h -28.01978 l 13.33175,-41.34818 c 15.80506,-49.01878 48.42237,-49.01878 65.49467,-49.01878 z"
       id="path174414"
       sodipodi:nodetypes="ccccccccc"
       inkscape:export-filename="/home/wladimir/AppWebs/AJ-Pack_Iconos/iconos_Portafolio/logo_vertical_negro.png"
       inkscape:export-xdpi="96"
       inkscape:export-ydpi="96" />
    <path
       id="path174418"
       clip-path="url(#clipPath82747)"
       style="display:inline;fill:#002a8d;fill-opacity:1;fill-rule:evenodd;stroke:none;stroke-width:0.115832;stroke-linecap:round"
       d="m -8.2050781,-0.58203125 a 6.9999992,5.2899994 0 0 0 -6.9999999,5.29101565 6.9999992,5.2899994 0 0 0 6.9999999,5.2890625 6.9999992,5.2899994 0 0 0 7,-5.2890625 6.9999992,5.2899994 0 0 0 -7,-5.29101565 z m 0,2.72070315 a 3.4007607,2.5700033 0 0 1 3.4003906,2.5703125 3.4007607,2.5700033 0 0 1 -3.4003906,2.5703125 3.4007607,2.5700033 0 0 1 -3.4003909,-2.5703125 3.4007607,2.5700033 0 0 1 3.4003909,-2.5703125 z"
       transform="matrix(8.5378073,0,0,8.5378073,454.64016,299.32005)"
       inkscape:export-filename="/home/wladimir/AppWebs/AJ-Pack_Iconos/iconos_Portafolio/logo_vertical_negro.png"
       inkscape:export-xdpi="96"
       inkscape:export-ydpi="96" />
  </g>
</svg>
