<svg width="144" height="144" version="1.1" viewBox="0 0 39 39" xmlns="http://www.w3.org/2000/svg">
 <rect x=".025982" y=".025982" width="38.948" height="38.948" ry="3.8806" fill="#00e676" stroke="#fff" stroke-width=".051965"/>
 <g transform="translate(2.382 2.25)" stroke-width=".87839">
  <path d="m9.5203 28.933 0.52703 0.26352c2.196 1.3176 4.6555 1.9325 7.1149 1.9325 7.7298 0 14.054-6.3244 14.054-14.054 0-3.6892-1.4933-7.2906-4.1284-9.9258-2.6352-2.6352-6.1487-4.1284-9.9258-4.1284-7.7298 0-14.054 6.3244-13.966 14.142 0 2.6352 0.79055 5.1825 2.1081 7.3785l0.35136 0.52703-1.4054 5.1825z" fill="#00e676"/>
  <path d="m17.25 1c-8.9596 0-16.163 7.291-16.075 16.162 0 2.8108 0.79089 5.5335 2.1085 7.993l-2.2835 8.3447 8.5197-2.196c2.3716 1.3176 5.0079 1.9318 7.643 1.9318 8.8717 0 16.074-7.2892 16.074-16.161 0-4.3041-1.6679-8.345-4.6544-11.331-2.9865-3.0744-7.1153-4.7436-11.331-4.7436zm-0.18871 2.8187c4.5058-0.05573 8.8963 2.1665 11.433 6.3168 3.8649 6.3244 2.0199 14.493-4.3045 18.358-2.0203 1.3176-4.4801 2.0192-6.9396 2.0192-2.3716 0-4.7426-0.61453-6.7629-1.8443l-0.5284-0.2642-5.0936 1.3176 1.3176-5.0061-0.3517-0.52669c-3.8649-6.2366-2.0199-14.493 4.3045-18.358 2.174-1.3286 4.5657-1.9832 6.9259-2.0124zm-4.9976 5.0233a1.7568 1.7568 0 0 0-1.7568 1.7568 1.7568 1.7568 0 0 0 1.7568 1.7568 1.7568 1.7568 0 0 0 1.7568-1.7568 1.7568 1.7568 0 0 0-1.7568-1.7568zm5.2446 0a1.7568 1.7568 0 0 0-1.7568 1.7568 1.7568 1.7568 0 0 0 1.7568 1.7568 1.7568 1.7568 0 0 0 1.7568-1.7568 1.7568 1.7568 0 0 0-1.7568-1.7568zm5.1571 0a1.7568 1.7568 0 0 0-1.7568 1.7568 1.7568 1.7568 0 0 0 1.7568 1.7568 1.7568 1.7568 0 0 0 1.7568-1.7568 1.7568 1.7568 0 0 0-1.7568-1.7568zm-10.402 5.0696a1.7568 1.7568 0 0 0-1.7568 1.7568 1.7568 1.7568 0 0 0 1.7568 1.7568 1.7568 1.7568 0 0 0 1.7568-1.7568 1.7568 1.7568 0 0 0-1.7568-1.7568zm5.2446 0a1.7568 1.7568 0 0 0-1.7568 1.7568 1.7568 1.7568 0 0 0 1.7568 1.7568 1.7568 1.7568 0 0 0 1.7568-1.7568 1.7568 1.7568 0 0 0-1.7568-1.7568zm5.1571 0a1.7568 1.7568 0 0 0-1.7568 1.7568 1.7568 1.7568 0 0 0 1.7568 1.7568 1.7568 1.7568 0 0 0 1.7568-1.7568 1.7568 1.7568 0 0 0-1.7568-1.7568zm-10.402 5.3338a1.7568 1.7568 0 0 0-1.7568 1.7568 1.7568 1.7568 0 0 0 1.7568 1.7568 1.7568 1.7568 0 0 0 1.7568-1.7568 1.7568 1.7568 0 0 0-1.7568-1.7568zm5.2446 0a1.7568 1.7568 0 0 0-1.7568 1.7568 1.7568 1.7568 0 0 0 1.7568 1.7568 1.7568 1.7568 0 0 0 1.7568-1.7568 1.7568 1.7568 0 0 0-1.7568-1.7568zm5.1571 0a1.7568 1.7568 0 0 0-1.7568 1.7568 1.7568 1.7568 0 0 0 1.7568 1.7568 1.7568 1.7568 0 0 0 1.7568-1.7568 1.7568 1.7568 0 0 0-1.7568-1.7568zm-5.1571 4.9821a1.7568 1.7568 0 0 0-1.7568 1.7568 1.7568 1.7568 0 0 0 1.7568 1.7568 1.7568 1.7568 0 0 0 1.7568-1.7568 1.7568 1.7568 0 0 0-1.7568-1.7568z" fill="#fff"/>
 </g>
</svg>
